# xmcd
#
# Track frame offsets:
#	150
#	16356
#	33477
#	49592
#	66479
#	82289
#	97044
#	115767
#	132519
#	148519
#
# Disc length: 2191 seconds
#
# Revision: 1
# Processed by: cddbd v1.5.1PL0 Copyright (c) Steve Scherf et al.
# Submitted via: EasyCDDAExtractor 6.5.0.1
#
DISCID=91088d0a
DTITLE=RAFAELITO ROMAN - MERENGUES TIPICOS
DYEAR=1900
DGENRE=Blues
TTITLE0=TO´ PAL TIO, NA´ PAL SOBRINO
TTITLE1=QUE MANERA DE APRETAR
TTITLE2=LA NENA LA TENGO YO
TTITLE3=SABROSURA
TTITLE4=TIENES QUE LUCHAR
TTITLE5=PARA TI MERCEDES
TTITLE6=HIJOS NA´ MA
TTITLE7=ROSY MARY
TTITLE8=JOHNNY BREA
TTITLE9=JUANCITO TUCUPEY
EXTD=
EXTT0=
EXTT1=
EXTT2=
EXTT3=
EXTT4=
EXTT5=
EXTT6=
EXTT7=
EXTT8=
EXTT9=
PLAYORDER=
